<svg xmlns="http://www.w3.org/2000/svg" xmlns:xlink="http://www.w3.org/1999/xlink" width="1080" zoomAndPan="magnify" viewBox="0 0 810 809.999993" height="1080" preserveAspectRatio="xMidYMid meet" version="1.0"><defs><clipPath id="4b6626a8e1"><path d="M 624.011719 624.011719 L 810 624.011719 L 810 810 L 624.011719 810 Z M 624.011719 624.011719 " clip-rule="nonzero"/></clipPath></defs><g clip-path="url(#4b6626a8e1)"><path fill="#f6f6f6" d="M 810.011719 624.011719 C 707.25 624.011719 624.011719 707.25 624.011719 810.011719 C 624.011719 912.777344 707.25 996.011719 810.011719 996.011719 C 912.777344 996.011719 996.011719 912.777344 996.011719 810.011719 C 996.011719 707.25 912.777344 624.011719 810.011719 624.011719 Z M 810.011719 958.8125 C 727.800781 958.8125 661.214844 892.226562 661.214844 810.011719 C 661.214844 727.800781 727.800781 661.214844 810.011719 661.214844 C 892.226562 661.214844 958.8125 727.800781 958.8125 810.011719 C 958.8125 892.226562 892.226562 958.8125 810.011719 958.8125 Z M 810.011719 958.8125 " fill-opacity="1" fill-rule="nonzero"/></g><path fill="#5bbb7b" d="M 320.878906 33.390625 C 303.640625 38.746094 227.175781 63.65625 150.824219 129.753906 C 132.324219 145.761719 57.5625 210.480469 25.617188 297.496094 C -28.753906 445.597656 36.308594 670.914062 223.703125 761.464844 C 441.980469 866.9375 717.699219 737.117188 780.582031 563.382812 C 808.472656 486.332031 809.734375 358.550781 739.476562 274.292969 C 682.929688 206.484375 586.226562 174.261719 589.972656 110.125 C 591.78125 79.234375 615.140625 70.691406 608.664062 51.234375 C 593.285156 5.085938 442.667969 -4.484375 320.878906 33.390625 " fill-opacity="1" fill-rule="nonzero"/><path fill="#ffffff" d="M 154.171875 540.796875 C 246.558594 633.179688 396.351562 633.179688 488.738281 540.796875 C 581.128906 448.414062 581.128906 298.632812 488.738281 206.25 C 396.351562 113.867188 246.558594 113.867188 154.171875 206.25 C 61.78125 298.632812 61.78125 448.414062 154.171875 540.796875 " fill-opacity="1" fill-rule="nonzero"/><path fill="#000000" d="M 321.453125 138.503906 C 261.238281 138.503906 201.023438 161.425781 155.179688 207.257812 C 110.769531 251.671875 86.308594 310.71875 86.308594 373.523438 C 86.308594 436.332031 110.769531 495.375 155.179688 539.785156 C 199.59375 584.195312 258.644531 608.65625 321.453125 608.65625 C 384.265625 608.65625 443.3125 584.195312 487.730469 539.785156 C 532.140625 495.375 556.601562 436.332031 556.601562 373.523438 C 556.601562 310.71875 532.140625 251.671875 487.730469 207.257812 C 441.882812 161.425781 381.671875 138.503906 321.453125 138.503906 Z M 321.453125 611.515625 C 257.882812 611.515625 198.113281 586.757812 153.160156 541.808594 C 108.203125 496.859375 83.449219 437.089844 83.449219 373.523438 C 83.449219 309.953125 108.203125 250.191406 153.160156 205.234375 C 198.113281 160.289062 257.882812 135.53125 321.453125 135.53125 C 385.03125 135.53125 444.796875 160.289062 489.753906 205.234375 C 534.707031 250.191406 559.460938 309.953125 559.460938 373.523438 C 559.460938 437.089844 534.707031 496.859375 489.753906 541.808594 C 444.796875 586.757812 385.03125 611.515625 321.453125 611.515625 " fill-opacity="1" fill-rule="nonzero"/><path fill="#ffffff" d="M 740.546875 792.984375 C 750.265625 783.261719 750.265625 767.492188 740.546875 757.765625 L 515.03125 532.273438 L 479.8125 567.492188 L 705.320312 792.984375 C 715.046875 802.710938 730.816406 802.710938 740.546875 792.984375 " fill-opacity="1" fill-rule="nonzero"/><path fill="#000000" d="M 481.832031 567.492188 L 706.335938 791.976562 C 715.484375 801.125 730.382812 801.125 739.53125 791.976562 C 748.683594 782.820312 748.683594 767.929688 739.53125 758.777344 L 515.035156 534.292969 Z M 722.929688 801.699219 C 716.1875 801.699219 709.445312 799.132812 704.3125 794 L 478.800781 568.503906 C 478.242188 567.941406 478.242188 567.039062 478.800781 566.480469 L 514.027344 531.261719 C 514.558594 530.726562 515.503906 530.726562 516.042969 531.261719 L 741.554688 756.753906 C 751.824219 767.023438 751.824219 783.726562 741.554688 794 C 736.421875 799.132812 729.679688 801.699219 722.929688 801.699219 " fill-opacity="1" fill-rule="nonzero"/><path fill="#ffffff" d="M 631.847656 666.144531 L 612.839844 647.132812 L 631.847656 666.144531 " fill-opacity="1" fill-rule="nonzero"/><path fill="#000000" d="M 631.847656 667.570312 C 631.484375 667.570312 631.117188 667.433594 630.835938 667.152344 L 611.824219 648.144531 C 611.261719 647.585938 611.261719 646.679688 611.824219 646.121094 C 612.382812 645.566406 613.285156 645.566406 613.847656 646.121094 L 632.859375 665.128906 C 633.417969 665.691406 633.417969 666.59375 632.859375 667.152344 C 632.582031 667.433594 632.214844 667.570312 631.847656 667.570312 " fill-opacity="1" fill-rule="nonzero"/><path fill="#ffffff" d="M 692.488281 763.09375 L 713.851562 784.453125 C 718.859375 789.460938 727.007812 789.460938 732.011719 784.453125 C 737.015625 779.449219 737.015625 771.304688 732.003906 766.296875 L 656.96875 691.261719 L 692.488281 763.09375 " fill-opacity="1" fill-rule="nonzero"/><path fill="#000000" d="M 722.933594 789.636719 C 719.277344 789.636719 715.621094 788.246094 712.839844 785.464844 L 691.480469 764.105469 C 690.921875 763.546875 690.921875 762.640625 691.480469 762.082031 C 692.039062 761.527344 692.949219 761.527344 693.503906 762.082031 L 714.867188 783.441406 C 719.316406 787.890625 726.554688 787.890625 731.003906 783.441406 C 735.449219 778.996094 735.449219 771.757812 731 767.308594 L 655.960938 692.273438 C 655.398438 691.710938 655.398438 690.808594 655.960938 690.25 C 656.515625 689.691406 657.417969 689.691406 657.980469 690.25 L 733.019531 765.285156 C 738.585938 770.851562 738.585938 779.902344 733.023438 785.464844 C 730.242188 788.246094 726.585938 789.636719 722.933594 789.636719 " fill-opacity="1" fill-rule="nonzero"/><path fill="#ffffff" d="M 520.671875 621.316406 L 568.855469 573.132812 C 570.136719 571.855469 570.136719 569.789062 568.855469 568.507812 L 543.464844 543.113281 C 542.1875 541.839844 540.117188 541.839844 538.839844 543.113281 L 490.652344 591.296875 C 489.378906 592.574219 489.378906 594.648438 490.652344 595.921875 L 516.050781 621.316406 C 517.328125 622.59375 519.398438 622.59375 520.671875 621.316406 " fill-opacity="1" fill-rule="nonzero"/><path fill="#000000" d="M 541.152344 545.222656 C 539.609375 545.222656 538.15625 545.824219 537.0625 546.914062 L 494.457031 589.519531 C 492.199219 591.777344 492.199219 595.445312 494.457031 597.699219 L 514.277344 617.515625 C 516.53125 619.773438 520.199219 619.773438 522.453125 617.515625 L 565.0625 574.910156 C 567.320312 572.65625 567.320312 568.988281 565.0625 566.734375 L 545.242188 546.914062 C 544.148438 545.824219 542.699219 545.222656 541.152344 545.222656 Z M 518.363281 622.066406 C 516.152344 622.066406 513.9375 621.222656 512.253906 619.539062 L 492.433594 599.722656 C 489.066406 596.351562 489.066406 590.871094 492.433594 587.5 L 535.042969 544.894531 C 536.675781 543.261719 538.84375 542.359375 541.152344 542.359375 C 543.464844 542.359375 545.636719 543.261719 547.269531 544.894531 L 567.085938 564.707031 C 570.453125 568.078125 570.453125 573.5625 567.085938 576.933594 L 524.476562 619.539062 C 522.792969 621.222656 520.578125 622.066406 518.363281 622.066406 " fill-opacity="1" fill-rule="nonzero"/><path fill="#ffffff" d="M 558.046875 658.6875 L 606.230469 610.503906 C 607.511719 609.230469 607.511719 607.160156 606.230469 605.882812 L 580.835938 580.488281 C 579.5625 579.210938 577.488281 579.210938 576.214844 580.488281 L 528.027344 628.667969 C 526.753906 629.949219 526.753906 632.019531 528.027344 633.292969 L 553.421875 658.6875 C 554.703125 659.964844 556.773438 659.964844 558.046875 658.6875 " fill-opacity="1" fill-rule="nonzero"/><path fill="#000000" d="M 578.527344 582.589844 C 576.984375 582.589844 575.53125 583.195312 574.4375 584.289062 L 531.828125 626.894531 C 529.574219 629.144531 529.574219 632.816406 531.828125 635.074219 L 551.648438 654.890625 C 553.898438 657.140625 557.570312 657.144531 559.828125 654.890625 L 560.839844 655.898438 L 559.828125 654.890625 L 602.433594 612.285156 C 604.691406 610.027344 604.691406 606.355469 602.433594 604.101562 L 582.617188 584.289062 C 581.527344 583.195312 580.070312 582.589844 578.527344 582.589844 Z M 555.734375 659.4375 C 553.523438 659.4375 551.3125 658.59375 549.625 656.910156 L 529.808594 637.09375 C 526.441406 633.722656 526.441406 628.242188 529.808594 624.871094 L 572.417969 582.265625 C 574.042969 580.632812 576.21875 579.734375 578.527344 579.734375 C 580.839844 579.734375 583.007812 580.632812 584.636719 582.265625 L 604.457031 602.082031 C 607.828125 605.453125 607.828125 610.9375 604.457031 614.304688 L 561.851562 656.910156 C 560.164062 658.59375 557.945312 659.4375 555.734375 659.4375 " fill-opacity="1" fill-rule="nonzero"/><path fill="#5bbb7b" d="M 108.515625 406.25 L 516.453125 465.226562 C 506.136719 487.164062 491.925781 507.722656 473.792969 525.851562 C 469.050781 530.59375 464.128906 535.058594 459.074219 539.265625 L 142.476562 493.496094 C 124.523438 466.773438 113.207031 436.921875 108.515625 406.25 " fill-opacity="1" fill-rule="nonzero"/><path fill="#5bbb7b" d="M 169.117188 221.195312 C 190.152344 200.160156 214.453125 184.386719 240.390625 173.871094 L 455.648438 204.992188 C 461.917969 209.996094 467.984375 215.386719 473.792969 221.195312 C 533.789062 281.183594 550.984375 367.757812 525.417969 443 L 106.210938 382.390625 C 103.832031 324.34375 124.792969 265.511719 169.117188 221.195312 " fill-opacity="1" fill-rule="nonzero"/><path fill="#000000" d="M 108.53125 342.046875 C 108.457031 342.046875 108.382812 342.042969 108.3125 342.03125 C 107.53125 341.910156 106.996094 341.179688 107.113281 340.398438 C 110.378906 319.15625 116.75 298.605469 126.046875 279.328125 C 126.390625 278.613281 127.246094 278.316406 127.957031 278.65625 C 128.667969 279.003906 128.96875 279.855469 128.625 280.566406 C 119.449219 299.597656 113.164062 319.871094 109.941406 340.835938 C 109.832031 341.539062 109.222656 342.046875 108.53125 342.046875 " fill-opacity="1" fill-rule="nonzero"/><path fill="#000000" d="M 362.597656 586.433594 C 361.925781 586.433594 361.328125 585.960938 361.195312 585.277344 C 361.042969 584.5 361.554688 583.753906 362.328125 583.601562 C 404.261719 575.484375 442.457031 555.164062 472.78125 524.839844 C 513.203125 484.421875 535.46875 430.683594 535.46875 373.527344 C 535.46875 316.363281 513.203125 262.625 472.78125 222.207031 C 432.359375 181.789062 378.613281 159.53125 321.453125 159.53125 C 264.289062 159.53125 210.546875 181.789062 170.125 222.207031 C 169.566406 222.769531 168.660156 222.769531 168.105469 222.207031 C 167.546875 221.648438 167.546875 220.742188 168.105469 220.183594 C 209.066406 179.230469 263.527344 156.671875 321.453125 156.671875 C 379.378906 156.671875 433.84375 179.230469 474.800781 220.183594 C 515.761719 261.140625 538.324219 315.601562 538.324219 373.527344 C 538.324219 431.445312 515.761719 485.90625 474.800781 526.863281 C 444.070312 557.59375 405.367188 578.183594 362.875 586.410156 C 362.785156 586.425781 362.691406 586.433594 362.597656 586.433594 " fill-opacity="1" fill-rule="nonzero"/><path fill="#6ff199" d="M 545.492188 61.722656 C 423.125 58.394531 321.890625 130.664062 319.375 223.132812 C 318.246094 264.511719 337.09375 302.914062 369.207031 333.03125 L 328.527344 423.6875 L 436.167969 375.59375 C 466.066406 388.09375 500.117188 395.605469 536.386719 396.589844 C 658.753906 399.914062 759.984375 327.65625 762.5 235.179688 C 765.015625 142.710938 667.855469 65.046875 545.492188 61.722656 " fill-opacity="1" fill-rule="nonzero"/><path fill="#000000" d="M 633.253906 63.382812 C 632.988281 63.382812 632.710938 63.324219 632.445312 63.203125 C 629.613281 61.878906 626.695312 60.582031 623.773438 59.351562 C 622.804688 58.941406 622.347656 57.828125 622.757812 56.855469 C 623.160156 55.882812 624.28125 55.429688 625.253906 55.839844 C 628.21875 57.089844 631.183594 58.402344 634.0625 59.746094 C 635.011719 60.195312 635.421875 61.332031 634.980469 62.28125 C 634.660156 62.972656 633.96875 63.382812 633.253906 63.382812 " fill-opacity="1" fill-rule="nonzero"/><path fill="#000000" d="M 522.710938 373.21875 C 519.980469 373.21875 517.242188 373.179688 514.492188 373.105469 C 505.328125 372.855469 496.117188 372.179688 487.097656 371.097656 C 486.054688 370.972656 485.308594 370.023438 485.433594 368.976562 C 485.5625 367.933594 486.511719 367.179688 487.558594 367.3125 C 496.457031 368.382812 505.550781 369.046875 514.601562 369.292969 C 635.695312 372.597656 736.273438 301.007812 738.757812 209.734375 C 740.160156 157.921875 710.140625 109.207031 656.386719 76.085938 C 655.496094 75.53125 655.214844 74.359375 655.765625 73.460938 C 656.324219 72.566406 657.492188 72.285156 658.390625 72.835938 C 684.648438 89.019531 706.191406 109.753906 720.691406 132.804688 C 735.933594 157.042969 743.300781 182.960938 742.570312 209.839844 C 741.332031 255.171875 716.859375 297.128906 673.652344 327.972656 C 632.597656 357.277344 579.265625 373.21875 522.710938 373.21875 " fill-opacity="1" fill-rule="nonzero"/><path fill="#000000" d="M 306.6875 400.203125 C 306.191406 400.203125 305.703125 400.007812 305.332031 399.640625 C 304.777344 399.082031 304.621094 398.238281 304.945312 397.515625 L 345.074219 308.09375 C 312.09375 276.730469 294.542969 237.570312 295.625 197.691406 C 296.859375 152.359375 321.332031 110.40625 364.539062 79.566406 C 407.578125 48.839844 464.105469 32.808594 523.695312 34.425781 C 537.730469 34.808594 551.753906 36.1875 565.371094 38.511719 C 566.40625 38.6875 567.101562 39.675781 566.921875 40.710938 C 566.746094 41.746094 565.765625 42.445312 564.726562 42.265625 C 551.28125 39.972656 537.445312 38.617188 523.59375 38.238281 C 464.855469 36.636719 409.128906 52.417969 366.753906 82.667969 C 324.542969 112.800781 300.636719 153.6875 299.441406 197.796875 C 298.371094 236.964844 315.855469 275.480469 348.667969 306.246094 C 349.265625 306.808594 349.4375 307.679688 349.105469 308.421875 L 310.472656 394.515625 L 413.546875 348.464844 C 414.027344 348.25 414.574219 348.242188 415.0625 348.445312 C 424.09375 352.226562 433.554688 355.542969 443.171875 358.328125 C 444.179688 358.621094 444.765625 359.679688 444.472656 360.691406 C 444.179688 361.699219 443.117188 362.289062 442.113281 361.992188 C 432.625 359.25 423.292969 355.980469 414.351562 352.285156 L 307.464844 400.035156 C 307.214844 400.148438 306.945312 400.203125 306.6875 400.203125 " fill-opacity="1" fill-rule="nonzero"/><path fill="#ffffff" d="M 531.792969 301.675781 C 523.445312 301.675781 516.675781 308.441406 516.675781 316.789062 L 516.675781 317.824219 C 516.675781 326.175781 523.445312 332.941406 531.792969 332.941406 C 540.140625 332.941406 546.914062 326.175781 546.914062 317.824219 L 546.914062 316.789062 C 546.914062 308.441406 540.140625 301.675781 531.792969 301.675781 " fill-opacity="1" fill-rule="nonzero"/><path fill="#ffffff" d="M 587.003906 123.320312 C 574.703125 112.992188 557.925781 107.832031 536.6875 107.832031 C 527.199219 107.832031 517.144531 108.898438 506.53125 111.019531 C 500.359375 112.253906 494.820312 113.578125 489.902344 114.992188 C 484.160156 116.648438 480.222656 121.917969 480.222656 127.890625 C 480.222656 137.410156 489.84375 143.886719 498.679688 140.347656 C 500.640625 139.558594 502.554688 138.828125 504.304688 138.214844 C 513.839844 134.855469 523.941406 133.175781 534.613281 133.175781 C 546.566406 133.175781 556.328125 135.914062 563.886719 141.398438 C 571.445312 146.878906 575.222656 155.207031 575.222656 166.367188 C 575.222656 174.867188 573.640625 181.855469 570.476562 187.339844 C 567.316406 192.820312 562.867188 198.132812 557.140625 203.273438 C 552.394531 207.714844 546.300781 212.113281 538.839844 216.457031 C 537.023438 217.515625 535.242188 218.554688 533.484375 219.566406 C 523.910156 225.125 518.011719 235.347656 518.011719 246.421875 L 518.011719 260.078125 C 518.011719 267.273438 523.605469 273.398438 530.792969 273.652344 C 538.339844 273.925781 544.542969 267.882812 544.542969 260.398438 L 544.542969 257.808594 C 544.542969 247.171875 550.015625 237.3125 558.988281 231.582031 C 561.890625 229.726562 564.734375 227.84375 567.515625 225.941406 C 574.726562 221.003906 581.097656 215.71875 586.628906 210.089844 C 592.265625 204.257812 596.808594 197.566406 600.265625 190.003906 C 603.726562 182.449219 605.457031 173.832031 605.457031 164.148438 C 605.457031 147.25 599.308594 133.644531 587.003906 123.320312 " fill-opacity="1" fill-rule="nonzero"/><path fill="#000000" d="M 148.578125 292.34375 C 143.664062 293.566406 138.863281 289.46875 131.414062 283.113281 C 122.363281 275.386719 116.050781 270 115.714844 261.328125 C 115.421875 253.714844 119.847656 246.640625 124.949219 242.867188 C 127.875 240.703125 132.3125 239.699219 141.191406 237.695312 C 151.351562 235.410156 152.660156 236.3125 158.546875 234.007812 C 165.402344 231.320312 166.472656 228.984375 169.625 229.574219 C 174.726562 230.539062 179.328125 238.0625 179.222656 245.085938 C 179.089844 254.371094 170.824219 255.765625 161.5 270.929688 C 153.710938 283.601562 154.40625 290.886719 148.578125 292.34375 " fill-opacity="1" fill-rule="nonzero"/><path fill="#6ff199" d="M 122.109375 323.601562 C 138.691406 318.1875 163.953125 314.308594 194.152344 323.925781 C 205.160156 327.429688 213.058594 337.125 214.417969 348.601562 L 239.015625 490.222656 C 240.238281 500.523438 226.472656 510.53125 216.777344 514.207031 C 206.648438 518.042969 191.339844 521.671875 169.660156 521.671875 C 146.417969 521.671875 129.527344 523.019531 120.101562 518.894531 C 112.28125 515.46875 100.503906 507.179688 100.105469 498.648438 L 101.8125 353.078125 C 101.199219 339.808594 109.480469 327.722656 122.109375 323.601562 " fill-opacity="1" fill-rule="nonzero"/><path fill="#6ff199" d="M 238.269531 384.457031 C 238.269531 384.457031 218.632812 330.066406 196.613281 324.839844 L 207.808594 401.902344 L 238.269531 384.457031 " fill-opacity="1" fill-rule="nonzero"/><path fill="#6ff199" d="M 67.730469 406.398438 C 67.730469 406.398438 75.585938 377.1875 81.613281 360.761719 C 93.800781 327.5625 119.867188 324.433594 119.867188 324.433594 L 119.867188 406.15625 L 67.730469 406.398438 " fill-opacity="1" fill-rule="nonzero"/><path fill="#000000" d="M 167.789062 338.941406 C 146.210938 338.941406 127.292969 330.109375 126.382812 329.679688 C 125.667969 329.34375 125.363281 328.488281 125.703125 327.773438 C 126.039062 327.058594 126.890625 326.757812 127.605469 327.09375 C 127.855469 327.210938 152.925781 338.894531 177.46875 335.417969 C 178.246094 335.304688 178.976562 335.847656 179.085938 336.628906 C 179.199219 337.414062 178.65625 338.140625 177.871094 338.246094 C 174.484375 338.726562 171.105469 338.941406 167.789062 338.941406 " fill-opacity="1" fill-rule="nonzero"/><path fill="#b0f4c6" d="M 159.558594 433.851562 L 255.992188 433.707031 C 258.4375 433.703125 260.5625 432.035156 261.148438 429.660156 L 280.492188 351.144531 C 281.320312 347.792969 278.777344 344.550781 275.324219 344.558594 L 178.890625 344.703125 C 176.445312 344.707031 174.320312 346.375 173.734375 348.75 L 154.390625 427.261719 C 153.5625 430.617188 156.105469 433.859375 159.558594 433.851562 " fill-opacity="1" fill-rule="nonzero"/><path fill="#000000" d="M 275.332031 345.988281 C 275.328125 345.988281 275.328125 345.988281 275.324219 345.988281 L 178.894531 346.132812 C 177.105469 346.136719 175.554688 347.351562 175.125 349.09375 L 155.777344 427.605469 C 155.492188 428.773438 155.753906 429.992188 156.496094 430.9375 C 157.234375 431.882812 158.351562 432.421875 159.550781 432.421875 C 159.554688 432.421875 159.558594 432.421875 159.558594 432.421875 L 255.992188 432.277344 C 257.78125 432.273438 259.332031 431.058594 259.757812 429.316406 L 279.105469 350.804688 C 279.394531 349.632812 279.132812 348.421875 278.386719 347.472656 C 277.648438 346.53125 276.53125 345.988281 275.332031 345.988281 Z M 159.550781 435.285156 C 157.46875 435.285156 155.53125 434.34375 154.246094 432.699219 C 152.953125 431.058594 152.5 428.953125 153 426.921875 L 172.347656 348.40625 C 173.089844 345.390625 175.78125 343.277344 178.890625 343.273438 L 275.320312 343.125 C 275.324219 343.125 275.328125 343.125 275.332031 343.125 C 277.417969 343.125 279.351562 344.066406 280.636719 345.710938 C 281.929688 347.351562 282.382812 349.460938 281.882812 351.488281 L 262.535156 430.003906 C 261.792969 433.019531 259.101562 435.132812 255.996094 435.136719 L 159.5625 435.285156 C 159.558594 435.285156 159.554688 435.285156 159.550781 435.285156 " fill-opacity="1" fill-rule="nonzero"/><path fill="#ffffff" d="M 273.386719 383.574219 L 270.566406 391.433594 L 247.363281 380.429688 C 247.363281 380.429688 234.628906 391.488281 265.554688 405.585938 C 278.445312 411.460938 273.386719 383.574219 273.386719 383.574219 " fill-opacity="1" fill-rule="nonzero"/><path fill="#000000" d="M 247.699219 382.167969 C 246.972656 383.097656 245.890625 384.964844 246.277344 387.511719 C 246.847656 391.289062 250.761719 397.269531 266.148438 404.285156 C 268.96875 405.570312 270.078125 404.707031 270.441406 404.421875 C 272.941406 402.476562 273.234375 395.691406 272.730469 389.636719 L 271.910156 391.914062 C 271.777344 392.292969 271.484375 392.601562 271.113281 392.753906 C 270.738281 392.90625 270.320312 392.898438 269.953125 392.726562 Z M 268.789062 407.835938 C 267.628906 407.835938 266.351562 407.515625 264.964844 406.886719 C 251.628906 400.808594 244.386719 394.410156 243.4375 387.875 C 242.6875 382.664062 246.273438 379.480469 246.425781 379.347656 C 246.855469 378.976562 247.460938 378.890625 247.976562 379.136719 L 269.753906 389.464844 L 272.042969 383.09375 C 272.257812 382.484375 272.863281 382.101562 273.503906 382.152344 C 274.148438 382.203125 274.679688 382.683594 274.792969 383.320312 C 275.140625 385.234375 278.019531 402.152344 272.195312 406.683594 C 271.210938 407.453125 270.070312 407.835938 268.789062 407.835938 " fill-opacity="1" fill-rule="nonzero"/><path fill="#ffffff" d="M 132.007812 361.695312 C 132.007812 361.695312 88.699219 386.09375 79.769531 393.75 C 70.835938 401.402344 61.148438 407.214844 73.78125 423.902344 C 86.410156 440.589844 140.046875 373.59375 140.046875 373.59375 C 140.046875 373.59375 150.371094 375.285156 153.953125 361.222656 C 153.953125 361.222656 171.382812 361.820312 172.007812 356.347656 L 147.421875 351.988281 C 144.238281 351.425781 140.988281 352.472656 138.734375 354.789062 L 132.007812 361.695312 " fill-opacity="1" fill-rule="nonzero"/><path fill="#000000" d="M 132.007812 361.695312 L 132.015625 361.695312 Z M 145.714844 353.265625 C 143.492188 353.265625 141.339844 354.160156 139.761719 355.78125 L 133.03125 362.691406 C 132.9375 362.789062 132.828125 362.871094 132.710938 362.941406 C 132.277344 363.183594 89.421875 387.359375 80.699219 394.835938 C 80.003906 395.429688 79.304688 396.015625 78.609375 396.59375 C 70.5 403.371094 64.089844 408.726562 74.921875 423.039062 C 75.96875 424.429688 77.386719 425.117188 79.25 425.144531 C 79.285156 425.144531 79.328125 425.144531 79.363281 425.144531 C 96.742188 425.144531 138.507812 373.226562 138.929688 372.699219 C 139.253906 372.296875 139.769531 372.097656 140.277344 372.183594 C 140.644531 372.238281 149.375 373.417969 152.570312 360.867188 C 152.734375 360.21875 153.296875 359.761719 154.003906 359.792969 C 159.640625 359.980469 167.21875 359.230469 169.738281 357.398438 L 147.171875 353.394531 C 146.6875 353.308594 146.199219 353.265625 145.714844 353.265625 Z M 79.347656 428.003906 C 79.300781 428.003906 79.253906 428.003906 79.210938 428 C 76.445312 427.964844 74.234375 426.875 72.636719 424.765625 C 60.164062 408.28125 68.609375 401.226562 76.777344 394.398438 C 77.460938 393.828125 78.152344 393.25 78.839844 392.660156 C 87.570312 385.175781 127.671875 362.5 131.125 360.554688 L 137.710938 353.789062 C 140.296875 351.132812 144.019531 349.9375 147.671875 350.578125 L 172.257812 354.9375 C 173.003906 355.074219 173.515625 355.761719 173.429688 356.507812 C 172.761719 362.382812 159.742188 362.746094 155.039062 362.679688 C 151.597656 374.320312 143.390625 375.128906 140.695312 375.066406 C 135.753906 381.171875 97.261719 428 79.347656 428.003906 " fill-opacity="1" fill-rule="nonzero"/><path fill="#ffffff" d="M 183.46875 714.902344 L 169.109375 757.746094 C 169.109375 757.746094 184.75 756.410156 186.246094 756.703125 C 187.738281 756.996094 206.035156 717.632812 206.035156 717.632812 L 183.46875 714.902344 " fill-opacity="1" fill-rule="nonzero"/><path fill="#000000" d="M 186.445312 755.285156 C 186.472656 755.289062 186.496094 755.292969 186.515625 755.300781 C 186.492188 755.292969 186.46875 755.289062 186.445312 755.285156 Z M 184.453125 716.460938 L 171.152344 756.140625 C 175.53125 755.777344 183.097656 755.203125 185.742188 755.246094 C 188.015625 752.199219 197.617188 732.289062 203.90625 718.8125 Z M 169.109375 759.175781 C 168.671875 759.175781 168.253906 758.976562 167.984375 758.632812 C 167.6875 758.25 167.597656 757.75 167.753906 757.289062 L 182.113281 714.449219 C 182.328125 713.804688 182.960938 713.398438 183.640625 713.484375 L 206.207031 716.210938 C 206.660156 716.269531 207.0625 716.535156 207.285156 716.9375 C 207.507812 717.335938 207.527344 717.820312 207.332031 718.234375 C 207.285156 718.332031 202.699219 728.199219 197.988281 737.902344 C 187.984375 758.5 187.355469 758.375 185.96875 758.109375 C 184.96875 757.964844 176.667969 758.535156 169.230469 759.171875 C 169.1875 759.175781 169.148438 759.175781 169.109375 759.175781 " fill-opacity="1" fill-rule="nonzero"/><path fill="#b0f4c6" d="M 172.394531 748.328125 C 172.394531 748.328125 193.992188 739.476562 197.988281 750.589844 C 203.066406 764.71875 211.007812 786.28125 211.007812 786.28125 C 212.355469 790.035156 209.769531 794.035156 205.792969 794.355469 C 197.902344 794.992188 186.128906 795.507812 180.644531 793.582031 C 171.984375 790.546875 157.621094 763.140625 157.621094 763.140625 L 162.050781 739.828125 C 162.050781 739.828125 169.882812 738.722656 172.394531 748.328125 " fill-opacity="1" fill-rule="nonzero"/><path fill="#000000" d="M 159.121094 762.917969 C 163.25 770.714844 174.578125 789.941406 181.117188 792.230469 C 185.117188 793.632812 193.839844 793.878906 205.679688 792.929688 C 207.125 792.8125 208.410156 792.050781 209.195312 790.832031 C 209.980469 789.613281 210.152344 788.128906 209.660156 786.765625 C 209.585938 786.5625 201.664062 765.046875 196.640625 751.074219 C 196.019531 749.34375 194.882812 748.136719 193.15625 747.371094 C 186.210938 744.28125 173.070312 749.597656 172.9375 749.652344 C 172.554688 749.808594 172.125 749.796875 171.757812 749.609375 C 171.386719 749.425781 171.117188 749.089844 171.011719 748.691406 C 169.335938 742.285156 165.167969 741.3125 163.242188 741.21875 Z M 193.082031 796.363281 C 187.972656 796.363281 183.207031 795.992188 180.171875 794.929688 C 171.238281 791.796875 157.851562 766.664062 156.355469 763.808594 C 156.203125 763.523438 156.15625 763.195312 156.214844 762.878906 L 160.644531 739.5625 C 160.757812 738.960938 161.242188 738.5 161.851562 738.414062 C 161.9375 738.398438 170.097656 737.367188 173.316406 746.453125 C 177.175781 745.066406 187.699219 741.8125 194.320312 744.757812 C 196.761719 745.839844 198.445312 747.644531 199.332031 750.105469 C 204.351562 764.070312 212.269531 785.570312 212.347656 785.789062 C 213.144531 788.007812 212.871094 790.40625 211.597656 792.375 C 210.328125 794.351562 208.25 795.59375 205.90625 795.78125 C 201.949219 796.101562 197.394531 796.363281 193.082031 796.363281 " fill-opacity="1" fill-rule="nonzero"/><path fill="#000000" d="M 205.476562 786.453125 L 183.296875 786.453125 C 182.503906 786.453125 181.867188 785.8125 181.867188 785.023438 C 181.867188 784.234375 182.503906 783.59375 183.296875 783.59375 L 205.476562 783.59375 C 206.265625 783.59375 206.90625 784.234375 206.90625 785.023438 C 206.90625 785.8125 206.265625 786.453125 205.476562 786.453125 " fill-opacity="1" fill-rule="nonzero"/><path fill="#ffffff" d="M 142.75 725.429688 L 147.628906 768.527344 L 167.257812 763.140625 L 165.746094 724.3125 L 142.75 725.429688 " fill-opacity="1" fill-rule="nonzero"/><path fill="#000000" d="M 144.339844 726.785156 L 148.863281 766.707031 L 165.785156 762.066406 L 164.371094 725.808594 Z M 147.628906 769.957031 C 147.347656 769.957031 147.066406 769.875 146.824219 769.710938 C 146.480469 769.476562 146.253906 769.105469 146.207031 768.6875 L 141.328125 725.585938 C 141.285156 725.195312 141.402344 724.800781 141.660156 724.503906 C 141.914062 724.203125 142.285156 724.019531 142.679688 724.003906 L 165.675781 722.882812 C 166.054688 722.867188 166.429688 723 166.710938 723.261719 C 166.992188 723.515625 167.160156 723.878906 167.175781 724.257812 L 168.683594 763.085938 C 168.710938 763.75 168.273438 764.347656 167.636719 764.519531 L 148.007812 769.90625 C 147.882812 769.9375 147.753906 769.957031 147.628906 769.957031 " fill-opacity="1" fill-rule="nonzero"/><path fill="#b0f4c6" d="M 145.777344 800.277344 L 176.832031 800.277344 C 181.035156 800.277344 184.265625 796.550781 183.648438 792.394531 C 182.613281 785.382812 179.234375 773.75 169.109375 757.746094 C 168 756 166.070312 754.9375 164.003906 754.9375 L 154.558594 754.9375 C 152.929688 754.9375 151.5625 756.167969 151.394531 757.789062 L 150.679688 764.601562 L 146.570312 759.171875 C 146.570312 759.171875 139.226562 774.628906 138.886719 793.269531 C 138.816406 797.117188 141.925781 800.277344 145.777344 800.277344 " fill-opacity="1" fill-rule="nonzero"/><path fill="#000000" d="M 146.914062 761.996094 C 144.945312 766.875 140.574219 779.226562 140.316406 793.292969 C 140.289062 794.765625 140.84375 796.15625 141.878906 797.210938 C 142.914062 798.265625 144.300781 798.851562 145.777344 798.851562 L 176.832031 798.851562 C 178.425781 798.851562 179.933594 798.160156 180.972656 796.957031 C 182.003906 795.757812 182.464844 794.171875 182.234375 792.605469 C 181.226562 785.792969 177.921875 774.351562 167.898438 758.507812 C 167.0625 757.1875 165.570312 756.367188 164.003906 756.367188 L 154.558594 756.367188 C 153.660156 756.367188 152.910156 757.042969 152.816406 757.9375 L 152.101562 764.75 C 152.042969 765.332031 151.628906 765.820312 151.066406 765.980469 C 150.5 766.136719 149.894531 765.933594 149.539062 765.46875 Z M 176.832031 801.707031 L 145.777344 801.707031 C 143.527344 801.707031 141.414062 800.824219 139.835938 799.210938 C 138.261719 797.609375 137.414062 795.488281 137.457031 793.242188 C 137.800781 774.511719 144.972656 759.203125 145.277344 758.558594 C 145.492188 758.109375 145.925781 757.800781 146.421875 757.75 C 146.921875 757.699219 147.410156 757.910156 147.707031 758.308594 L 149.636719 760.851562 L 149.972656 757.636719 C 150.21875 755.28125 152.191406 753.507812 154.558594 753.507812 L 164.003906 753.507812 C 166.578125 753.507812 168.9375 754.804688 170.316406 756.980469 C 180.605469 773.246094 184.015625 785.101562 185.0625 792.1875 C 185.417969 794.574219 184.714844 796.996094 183.136719 798.824219 C 181.554688 800.65625 179.257812 801.707031 176.832031 801.707031 " fill-opacity="1" fill-rule="nonzero"/><path fill="#000000" d="M 180.644531 794.289062 L 143.464844 794.289062 C 142.675781 794.289062 142.035156 793.644531 142.035156 792.859375 C 142.035156 792.066406 142.675781 791.425781 143.464844 791.425781 L 180.644531 791.425781 C 181.433594 791.425781 182.074219 792.066406 182.074219 792.859375 C 182.074219 793.644531 181.433594 794.289062 180.644531 794.289062 " fill-opacity="1" fill-rule="nonzero"/><path fill="#000000" d="M 216.464844 466.605469 C 215.652344 464.617188 214.007812 463.097656 211.957031 462.453125 C 200.601562 458.890625 161.007812 449.503906 120.25 475.640625 C 118.324219 476.875 117.09375 478.941406 116.933594 481.21875 C 115.460938 501.929688 109.964844 610.199219 144.214844 738.390625 L 167.289062 736.75 L 171.992188 517.5625 C 171.992188 517.5625 206.171875 597.917969 178.378906 725.800781 L 202.378906 730.230469 C 202.378906 730.230469 237.5 684.054688 243.785156 613.492188 C 249.351562 551.078125 222.691406 481.769531 216.464844 466.605469 " fill-opacity="1" fill-rule="nonzero"/><path fill="#ffffff" d="M 150.09375 637.046875 C 150.074219 637.046875 150.054688 637.042969 150.03125 637.042969 C 128.253906 636.105469 125.796875 606.574219 125.773438 606.277344 C 125.714844 605.492188 126.304688 604.808594 127.089844 604.746094 C 127.886719 604.6875 128.566406 605.277344 128.625 606.066406 C 128.644531 606.339844 130.917969 633.355469 150.15625 634.1875 C 150.945312 634.222656 151.558594 634.886719 151.523438 635.675781 C 151.488281 636.445312 150.855469 637.046875 150.09375 637.046875 " fill-opacity="1" fill-rule="nonzero"/><path fill="#ffffff" d="M 174 539.089844 C 173.230469 539.089844 172.59375 538.476562 172.570312 537.703125 L 171.757812 510.28125 C 171.746094 509.804688 171.972656 509.351562 172.367188 509.074219 L 186.75 498.957031 C 187.394531 498.503906 188.289062 498.660156 188.742188 499.308594 C 189.195312 499.953125 189.042969 500.847656 188.394531 501.300781 L 174.640625 510.96875 L 175.429688 537.617188 C 175.453125 538.40625 174.832031 539.066406 174.042969 539.089844 C 174.03125 539.089844 174.015625 539.089844 174 539.089844 " fill-opacity="1" fill-rule="nonzero"/><path fill="#ffffff" d="M 138.988281 316.742188 C 143.226562 313.9375 145.703125 309.128906 145.585938 304.042969 L 145.105469 282.941406 C 144.960938 282.808594 144.816406 282.675781 144.675781 282.546875 C 144.675781 282.546875 136.222656 283.109375 134.992188 278.804688 C 133.761719 274.5 139.738281 273.675781 139.738281 273.675781 C 139.738281 273.675781 134.09375 261.796875 148.695312 261.933594 C 152.621094 261.96875 154.019531 255.46875 160.453125 254.015625 C 160.453125 254.015625 163.636719 253.742188 166.863281 262.085938 L 173.925781 272.542969 L 170.398438 274.476562 C 171.265625 278.453125 171.640625 282.839844 171.109375 287.484375 C 170.953125 288.824219 170.03125 289.945312 168.75 290.363281 C 167.6875 290.707031 166.257812 291.070312 164.570312 291.265625 L 165.710938 305.390625 C 166.207031 311.570312 169.449219 317.199219 174.527344 320.765625 C 179.429688 324.203125 183.957031 326.632812 183.957031 326.632812 C 183.957031 326.632812 157.921875 330.191406 127.984375 323.363281 C 127.984375 323.363281 133.769531 320.199219 138.988281 316.742188 " fill-opacity="1" fill-rule="nonzero"/><path fill="#000000" d="M 131.953125 322.753906 C 152.722656 326.960938 171.257812 326.273438 179.390625 325.640625 C 177.765625 324.652344 175.773438 323.386719 173.707031 321.9375 C 168.25 318.109375 164.816406 312.117188 164.285156 305.503906 L 163.148438 291.382812 C 163.085938 290.617188 163.640625 289.933594 164.40625 289.847656 C 165.746094 289.691406 167.058594 289.40625 168.308594 289 C 169.058594 288.757812 169.597656 288.101562 169.6875 287.320312 C 170.15625 283.238281 169.925781 279.019531 169 274.78125 C 168.863281 274.164062 169.15625 273.527344 169.710938 273.226562 L 171.863281 272.042969 L 165.675781 262.890625 C 165.617188 262.800781 165.566406 262.703125 165.527344 262.605469 C 163.160156 256.480469 161.007812 255.585938 160.550781 255.460938 C 157.703125 256.179688 156.015625 258.039062 154.378906 259.839844 C 152.804688 261.570312 151.179688 263.363281 148.730469 263.363281 C 148.628906 263.363281 148.535156 263.359375 148.4375 263.359375 C 144.535156 263.359375 141.976562 264.269531 140.832031 266.050781 C 139.066406 268.800781 141.011719 273.023438 141.03125 273.0625 C 141.226562 273.476562 141.210938 273.957031 140.992188 274.351562 C 140.777344 274.753906 140.382812 275.027344 139.933594 275.09375 C 139.277344 275.1875 137.226562 275.703125 136.511719 276.808594 C 136.332031 277.082031 136.121094 277.550781 136.367188 278.410156 C 137.113281 281.015625 142.683594 281.246094 144.582031 281.121094 C 144.976562 281.089844 145.371094 281.234375 145.660156 281.507812 L 146.074219 281.890625 C 146.359375 282.15625 146.527344 282.523438 146.535156 282.914062 L 147.015625 304.011719 C 147.144531 309.644531 144.4375 314.851562 139.777344 317.933594 C 137.03125 319.753906 134.113281 321.503906 131.953125 322.753906 Z M 166.582031 328.972656 C 156.265625 328.972656 142.390625 328.117188 127.667969 324.757812 C 127.089844 324.621094 126.652344 324.148438 126.566406 323.558594 C 126.488281 322.96875 126.777344 322.394531 127.300781 322.109375 C 127.355469 322.074219 133.089844 318.933594 138.199219 315.550781 C 142.035156 313.007812 144.261719 308.722656 144.15625 304.078125 L 143.699219 284.003906 C 141.082031 284.027344 134.871094 283.578125 133.617188 279.195312 C 133.203125 277.75 133.375 276.378906 134.117188 275.238281 C 135.03125 273.835938 136.617188 273.070312 137.839844 272.667969 C 137.238281 270.695312 136.644531 267.296875 138.417969 264.523438 C 140.148438 261.808594 143.59375 260.464844 148.710938 260.503906 C 149.867188 260.535156 150.800781 259.527344 152.261719 257.917969 C 154.050781 255.945312 156.273438 253.496094 160.140625 252.617188 C 160.203125 252.605469 160.265625 252.597656 160.332031 252.585938 C 161.039062 252.53125 164.714844 252.675781 168.136719 261.421875 L 175.109375 271.742188 C 175.335938 272.074219 175.410156 272.484375 175.316406 272.878906 C 175.222656 273.269531 174.964844 273.601562 174.613281 273.796875 L 172.011719 275.222656 C 172.820312 279.417969 172.996094 283.589844 172.527344 287.648438 C 172.308594 289.535156 171 291.136719 169.1875 291.722656 C 168.1875 292.046875 167.15625 292.300781 166.105469 292.488281 L 167.136719 305.273438 C 167.597656 311.039062 170.59375 316.253906 175.347656 319.59375 C 180.121094 322.941406 184.589844 325.347656 184.632812 325.375 C 185.179688 325.667969 185.472656 326.277344 185.363281 326.886719 C 185.253906 327.496094 184.765625 327.96875 184.152344 328.050781 C 184.019531 328.070312 177.179688 328.972656 166.582031 328.972656 " fill-opacity="1" fill-rule="nonzero"/><path fill="#ffffff" d="M 164.570312 291.265625 C 164.570312 291.265625 155.308594 291.59375 151.628906 286.550781 L 164.570312 291.265625 " fill-opacity="1" fill-rule="nonzero"/><path fill="#000000" d="M 164.195312 292.707031 C 162.21875 292.707031 154.117188 292.390625 150.472656 287.394531 C 150.007812 286.757812 150.144531 285.863281 150.785156 285.398438 C 151.421875 284.929688 152.316406 285.070312 152.78125 285.707031 C 155.964844 290.070312 164.433594 289.839844 164.523438 289.839844 C 165.269531 289.804688 165.972656 290.429688 166 291.21875 C 166.027344 292.007812 165.410156 292.667969 164.621094 292.695312 C 164.578125 292.699219 164.429688 292.707031 164.195312 292.707031 " fill-opacity="1" fill-rule="nonzero"/><path fill="#b0f4c6" d="M 547.789062 703.722656 L 331.144531 703.722656 C 323.164062 703.722656 316.699219 710.191406 316.699219 718.167969 C 316.699219 726.144531 323.164062 732.613281 331.144531 732.613281 L 547.789062 732.613281 C 555.773438 732.613281 562.234375 726.144531 562.234375 718.167969 C 562.234375 710.191406 555.773438 703.722656 547.789062 703.722656 " fill-opacity="1" fill-rule="nonzero"/><path fill="#b0f4c6" d="M 404.429688 657.722656 L 284.773438 657.722656 C 277.367188 657.722656 271.363281 663.726562 271.363281 671.132812 C 271.363281 678.542969 277.367188 684.542969 284.773438 684.542969 L 404.429688 684.542969 C 411.839844 684.542969 417.839844 678.542969 417.839844 671.132812 C 417.839844 663.726562 411.839844 657.722656 404.429688 657.722656 " fill-opacity="1" fill-rule="nonzero"/><path fill="#b0f4c6" d="M 458.929688 671.132812 C 458.929688 678.542969 452.925781 684.542969 445.519531 684.542969 C 438.113281 684.542969 432.105469 678.542969 432.105469 671.132812 C 432.105469 663.726562 438.113281 657.722656 445.519531 657.722656 C 452.925781 657.722656 458.929688 663.726562 458.929688 671.132812 " fill-opacity="1" fill-rule="nonzero"/><path fill="#b0f4c6" d="M 696.34375 482.753906 L 561.355469 482.753906 C 553.382812 482.753906 546.914062 489.214844 546.914062 497.195312 C 546.914062 505.171875 553.382812 511.636719 561.355469 511.636719 L 696.34375 511.636719 C 704.324219 511.636719 710.785156 505.171875 710.785156 497.195312 C 710.785156 489.214844 704.324219 482.753906 696.34375 482.753906 " fill-opacity="1" fill-rule="nonzero"/><path fill="#b0f4c6" d="M 728.925781 436.75 L 609.269531 436.75 C 601.859375 436.75 595.855469 442.757812 595.855469 450.164062 C 595.855469 457.570312 601.859375 463.570312 609.269531 463.570312 L 728.925781 463.570312 C 736.332031 463.570312 742.335938 457.570312 742.335938 450.164062 C 742.335938 442.757812 736.332031 436.75 728.925781 436.75 " fill-opacity="1" fill-rule="nonzero"/><path fill="#b0f4c6" d="M 783.425781 450.160156 C 783.425781 457.566406 777.421875 463.570312 770.015625 463.570312 C 762.609375 463.570312 756.601562 457.566406 756.601562 450.160156 C 756.601562 442.757812 762.609375 436.75 770.015625 436.75 C 777.421875 436.75 783.425781 442.757812 783.425781 450.160156 " fill-opacity="1" fill-rule="nonzero"/><path fill="#b0f4c6" d="M 198.429688 116.390625 L 63.445312 116.390625 C 55.464844 116.390625 49 122.855469 49 130.832031 C 49 138.8125 55.464844 145.277344 63.445312 145.277344 L 198.429688 145.277344 C 206.40625 145.277344 212.875 138.8125 212.875 130.832031 C 212.875 122.855469 206.40625 116.390625 198.429688 116.390625 " fill-opacity="1" fill-rule="nonzero"/><path fill="#b0f4c6" d="M 231.015625 70.390625 L 111.359375 70.390625 C 103.949219 70.390625 97.945312 76.394531 97.945312 83.800781 C 97.945312 91.210938 103.949219 97.214844 111.359375 97.214844 L 231.015625 97.214844 C 238.421875 97.214844 244.425781 91.210938 244.425781 83.800781 C 244.425781 76.394531 238.421875 70.390625 231.015625 70.390625 " fill-opacity="1" fill-rule="nonzero"/><path fill="#b0f4c6" d="M 285.515625 83.800781 C 285.515625 91.210938 279.507812 97.214844 272.101562 97.214844 C 264.695312 97.214844 258.691406 91.210938 258.691406 83.800781 C 258.691406 76.394531 264.695312 70.390625 272.101562 70.390625 C 279.507812 70.390625 285.515625 76.394531 285.515625 83.800781 " fill-opacity="1" fill-rule="nonzero"/><path fill="#000000" d="M 762.546875 539.566406 L 614.015625 539.566406 C 612.964844 539.566406 612.109375 538.710938 612.109375 537.664062 C 612.109375 536.605469 612.964844 535.757812 614.015625 535.757812 L 762.546875 535.757812 C 763.59375 535.757812 764.453125 536.605469 764.453125 537.664062 C 764.453125 538.710938 763.59375 539.566406 762.546875 539.566406 " fill-opacity="1" fill-rule="nonzero"/><path fill="#000000" d="M 656.96875 566.707031 L 587.28125 566.707031 C 586.226562 566.707031 585.375 565.851562 585.375 564.796875 C 585.375 563.746094 586.226562 562.894531 587.28125 562.894531 L 656.96875 562.894531 C 658.019531 562.894531 658.875 563.746094 658.875 564.796875 C 658.875 565.851562 658.019531 566.707031 656.96875 566.707031 " fill-opacity="1" fill-rule="nonzero"/><path fill="#000000" d="M 384.421875 759.320312 L 291.585938 759.320312 C 290.53125 759.320312 289.679688 758.464844 289.679688 757.414062 C 289.679688 756.363281 290.53125 755.511719 291.585938 755.511719 L 384.421875 755.511719 C 385.472656 755.511719 386.328125 756.363281 386.328125 757.414062 C 386.328125 758.464844 385.472656 759.320312 384.421875 759.320312 " fill-opacity="1" fill-rule="nonzero"/><path fill="#000000" d="M 126.992188 175.773438 L 43.875 175.773438 C 42.820312 175.773438 41.96875 174.917969 41.96875 173.867188 C 41.96875 172.816406 42.820312 171.960938 43.875 171.960938 L 126.992188 171.960938 C 128.046875 171.960938 128.902344 172.816406 128.902344 173.867188 C 128.902344 174.917969 128.046875 175.773438 126.992188 175.773438 " fill-opacity="1" fill-rule="nonzero"/><path fill="#000000" d="M 375.636719 43.578125 L 331.304688 43.578125 C 330.253906 43.578125 329.398438 42.722656 329.398438 41.671875 C 329.398438 40.625 330.253906 39.765625 331.304688 39.765625 L 375.636719 39.765625 C 376.6875 39.765625 377.542969 40.625 377.542969 41.671875 C 377.542969 42.722656 376.6875 43.578125 375.636719 43.578125 " fill-opacity="1" fill-rule="nonzero"/><path fill="#000000" d="M 459.691406 781.542969 L 324.363281 781.542969 C 323.308594 781.542969 322.457031 780.691406 322.457031 779.636719 C 322.457031 778.585938 323.308594 777.730469 324.363281 777.730469 L 459.691406 777.730469 C 460.742188 777.730469 461.597656 778.585938 461.597656 779.636719 C 461.597656 780.691406 460.742188 781.542969 459.691406 781.542969 " fill-opacity="1" fill-rule="nonzero"/></svg>